<?xml version="1.0" encoding="utf-8"?>
<!-- Generator: Adobe Illustrator 21.0.0, SVG Export Plug-In . SVG Version: 6.00 Build 0)  -->
<svg version="1.1" xmlns="http://www.w3.org/2000/svg" xmlns:xlink="http://www.w3.org/1999/xlink" x="0px" y="0px"
	 viewBox="0 0 149.2 172.2" style="enable-background:new 0 0 149.2 172.2;" xml:space="preserve">
<style type="text/css">
	.st0{fill:#585858;}
	.st1{fill:#FFFFFF;}
	.st2{fill:none;stroke:#585858;stroke-width:4;stroke-linecap:round;stroke-miterlimit:10;}
	.st3{fill:none;stroke:#FFFFFF;stroke-width:6;stroke-miterlimit:10;}
</style>
<g id="Laag_1">
	<g id="Layer_1">
		<circle class="st0" cx="74.6" cy="85.6" r="74.6"/>
	</g>
</g>
<g id="Laag_2_1_">
	<path class="st1" d="M-14.2,129.3c0,0,42.3-36.4,52.5-57.2s2.2-42.7,2.2-42.7S38,21.1,42.2,25s6.2,15.2,22.5,21.8
		s34.8,16.1,46.7,25.6s11,29.5-6.6,30.4C87.2,103.7,75.3,87.6,58,92.4s3.3,81.7,3.3,81.7S-4.7,190.3-14.2,129.3z"/>
	<polyline class="st1" points="63,51.2 91.4,5 73.5,58.4 	"/>
	<circle class="st0" cx="66" cy="62.3" r="4.9"/>
	<path class="st2" d="M120.6,98.1c0,0-30.8-7.8-38.8-12.3"/>
	<polygon class="st1" points="94.6,105.5 97,121.8 111.9,129 97.1,136.3 94.9,152.6 83.3,140.9 67.1,143.8 74.7,129.2 66.9,114.7 
		83.2,117.4 	"/>
	<line class="st3" x1="88.9" y1="127.8" x2="65.4" y2="186"/>
</g>
</svg>
