<?xml version="1.0" encoding="utf-8"?>
<!-- Generator: Adobe Illustrator 21.0.0, SVG Export Plug-In . SVG Version: 6.00 Build 0)  -->
<svg version="1.0" xmlns="http://www.w3.org/2000/svg" xmlns:xlink="http://www.w3.org/1999/xlink" x="0px" y="0px"
	 viewBox="0 0 149.2 172.2" style="enable-background:new 0 0 149.2 172.2;" xml:space="preserve">
<style type="text/css">
	.st0{fill:#585858;}
	.st1{fill:#FFFFFF;}
</style>
<g id="Layer_1">
	<circle class="st0" cx="74.6" cy="85.6" r="74.6"/>
</g>
<g id="Laag_2">
	<path d="M109.7,142.1c0.3-3.9-1.6-7.1-5.5-9c-7.4-3.7-13.5-9-18.7-15.3c-0.5-0.6-0.8-1.8-0.6-2.3c0.3-0.6,1.4-1.1,2.2-1.2
		c2.5-0.3,5.2-0.2,7.7-0.7c5.3-1,10.1-3.1,12.7-8.1c3.3-6.3,3.8-12.9,0.8-19.4C104.9,78.8,99,75,91,74.5c-1.8-0.1-2.4-0.7-2.5-2.3
		C88,65.2,85,59.3,79.5,54.8c-5.3-4.4-11.6-6.3-18.3-6.9c-3.6-0.3-6.8-0.8-8.7-4.2c-0.1-0.2-0.3-0.3-0.4-0.4
		c-4.2-4.1-9.1-6.8-15.1-6.9c-1,0-1.6,0.3-2.1,1.2c-1.3,2.3-1.6,4.9-1.5,7.5c0.2,3.7,1.5,7.1,2.9,10.5c0.4,0.8,0.5,2,0.1,2.9
		c-5.3,13.7-7.6,27.9-6.8,42.6c0.8,14.4,5.1,27.6,12.7,39.8c0.6,0.9,1.2,1.3,2.3,1.3c21.1,0,42.2,0,63.3,0
		C108.6,142.1,109.1,142.1,109.7,142.1z"/>
	<path d="M18.4,88.9c1-0.9,1.8-1.9,2.8-2.4c3.5-1.9,5-4.9,5.5-8.7c0.3-2.5,1.1-5,1.7-7.7c-3.1,1.3-5.7,2.7-7.9,4.8
		C16.6,78.8,15.8,83.7,18.4,88.9z"/>
	<path d="M26.9,112.2c-6.5,8.9-2,22.1,8.2,24.2C31.2,128.7,28.6,120.7,26.9,112.2z"/>
	<path d="M91.5,66c1.1-2.1,1.9-3.9,2.8-5.6c0.5-0.8,0.3-1.3-0.3-2c-3.7-3.7-7.4-7.4-11.2-11.1c-0.4-0.4-0.8-0.8-1.3-1.2
		c-1.3,0.8-2.6,1.6-4.1,2.6C84.4,52.7,89.1,58.2,91.5,66z"/>
	<path d="M96.9,55.3c0.8-1.6,1.6-3.1,2.3-4.6c0.1-0.3,0.1-0.9-0.2-1.1c-2.7-2.8-5.5-5.6-8.3-8.3c-0.2-0.2-0.8-0.3-1-0.2
		c-1.5,0.9-2.9,1.8-4.4,2.7C89.2,47.7,93,51.4,96.9,55.3z"/>
	<path d="M23.1,67.8c1.9-0.8,3.8-1.5,5.6-2.3c0.6-0.3,1.2-0.9,1.5-1.5c0.7-1.6,1-3.4,1.8-4.9c0.9-1.8,0.2-3.2-0.7-4.7
		C25.3,56.9,21.4,63.2,23.1,67.8z"/>
	<path d="M101.7,45.8c0.7-1.4,1.5-3,2.2-4.5c0.1-0.3,0-0.9-0.2-1.1c-1.4-1.5-2.8-2.9-4.3-4.3c-0.2-0.2-0.8-0.3-1.1-0.2
		c-1.5,0.8-2.9,1.8-4.2,2.6C96.6,40.8,99.1,43.3,101.7,45.8z"/>
	<path d="M102.7,32.9c1.2,1.2,2.4,2.4,3.7,3.7c1-2.1,2.1-4.1,3.1-6.2c0.1-0.3,0-0.7,0-1.1c-0.4,0-0.9-0.1-1.2,0.1
		C106.5,30.5,104.6,31.7,102.7,32.9z"/>
	<path class="st1" d="M109.7,142.1c-0.6,0-1.1,0-1.6,0c-21.1,0-42.2,0-63.3,0c-1.1,0-1.8-0.3-2.3-1.3c-7.6-12.2-11.9-25.5-12.7-39.8
		c-0.9-14.7,1.5-28.8,6.8-42.6c0.3-0.8,0.2-2-0.1-2.9c-1.4-3.4-2.7-6.8-2.9-10.5c-0.1-2.6,0.2-5.1,1.5-7.5c0.5-0.9,1.1-1.2,2.1-1.2
		c6.1,0,10.9,2.8,15.1,6.9c0.1,0.1,0.3,0.3,0.4,0.4c1.9,3.4,5.1,3.9,8.7,4.2c6.7,0.6,13,2.5,18.3,6.9c5.4,4.5,8.4,10.3,8.9,17.4
		c0.1,1.6,0.7,2.2,2.5,2.3c8,0.5,13.9,4.3,17.2,11.5c3,6.5,2.5,13.1-0.8,19.4c-2.6,5-7.4,7.1-12.7,8.1c-2.5,0.5-5.1,0.4-7.7,0.7
		c-0.8,0.1-1.9,0.6-2.2,1.2c-0.3,0.5,0.1,1.7,0.6,2.3c5.2,6.3,11.3,11.6,18.7,15.3C108.1,135,110,138.2,109.7,142.1z M66.5,85.5
		c5.5,0,10.3-4.6,10.5-9.9c0.1-1.5-0.6-2.5-1.7-2.6c-1.2-0.1-1.9,0.7-2.2,2.2c-0.1,0.6-0.2,1.3-0.4,1.9c-1,3-3.8,4.7-7.1,4.4
		c-3-0.3-5.4-2.8-5.8-6.1c-0.2-1.7-0.9-2.5-2.2-2.3c-1.2,0.1-1.8,1.1-1.7,2.7C56.3,81,61.1,85.5,66.5,85.5z M41.9,41
		c-0.9,0.2-1.7,0.3-2.6,0.5c-1.4,0.4-2,1.4-1.7,2.6c0.3,1.1,1.4,1.5,2.7,1.2c2.5-0.6,4.3,0.1,5.7,2.3c0.6,0.9,1,2,1.5,3
		c0.6,1,1.5,1.5,2.6,1c1-0.5,1.5-1.4,1-2.5c-0.8-1.6-1.5-3.2-2.6-4.5C46.9,42.3,44.7,41,41.9,41z"/>
	<path class="st1" d="M18.4,88.9c-2.6-5.2-1.8-10.1,2.1-14c2.2-2.1,4.8-3.6,7.9-4.8c-0.6,2.7-1.4,5.1-1.7,7.7
		c-0.5,3.8-2,6.8-5.5,8.7C20.2,87,19.4,88,18.4,88.9z"/>
	<path class="st1" d="M22.5,110.1c-4.2-4-5.1-8.9-2.7-13.9c1.3-2.7,3.3-5,5.8-7.2c0.3,2.7,0.5,5.3,1,7.8c0.8,3.8,0.4,7.1-2.2,10.1
		C23.5,107.7,23.1,108.9,22.5,110.1z"/>
	<path class="st1" d="M26.9,112.2c1.6,8.6,4.3,16.6,8.2,24.2C24.9,134.3,20.4,121.1,26.9,112.2z"/>
	<path class="st1" d="M91.5,66c-2.3-7.8-7-13.4-14-17.3c1.5-0.9,2.7-1.7,4.1-2.6c0.4,0.4,0.9,0.8,1.3,1.2c3.7,3.7,7.4,7.4,11.2,11.1
		c0.7,0.6,0.8,1.1,0.3,2C93.3,62.2,92.5,63.9,91.5,66z"/>
	<path class="st1" d="M96.9,55.3c-3.9-3.9-7.6-7.6-11.6-11.5c1.4-0.9,2.9-1.8,4.4-2.7c0.2-0.1,0.8,0,1,0.2c2.8,2.8,5.6,5.5,8.3,8.3
		c0.2,0.2,0.3,0.8,0.2,1.1C98.5,52.2,97.7,53.7,96.9,55.3z"/>
	<path class="st1" d="M23.1,67.8c-1.7-4.6,2.2-10.9,8.2-13.4c0.9,1.5,1.6,2.8,0.7,4.7c-0.8,1.5-1.1,3.3-1.8,4.9
		c-0.3,0.6-0.9,1.2-1.5,1.5C26.9,66.4,25,67.1,23.1,67.8z"/>
	<path class="st1" d="M101.7,45.8c-2.6-2.6-5.1-5-7.6-7.5c1.4-0.9,2.8-1.8,4.2-2.6c0.3-0.1,0.9,0,1.1,0.2c1.5,1.4,2.9,2.8,4.3,4.3
		c0.2,0.2,0.4,0.8,0.2,1.1C103.2,42.9,102.4,44.4,101.7,45.8z"/>
	<path class="st1" d="M102.7,32.9c1.9-1.2,3.8-2.4,5.6-3.5c0.3-0.2,0.8-0.1,1.2-0.1c0,0.4,0.1,0.8,0,1.1c-1,2.1-2.1,4.2-3.1,6.2
		C105.1,35.3,103.9,34.1,102.7,32.9z"/>
	<path class="st0" d="M66.5,85.5c-5.4,0-10.2-4.5-10.5-9.8c-0.1-1.7,0.5-2.6,1.7-2.7c1.2-0.1,2,0.7,2.2,2.3c0.4,3.4,2.8,5.9,5.8,6.1
		c3.3,0.3,6.1-1.5,7.1-4.4c0.2-0.6,0.3-1.2,0.4-1.9c0.2-1.5,1-2.3,2.2-2.2c1.2,0.1,1.8,1,1.7,2.6C76.8,80.9,72,85.5,66.5,85.5z"/>
	<path class="st0" d="M41.9,41c2.8,0.1,5,1.4,6.7,3.5c1.1,1.4,1.8,3,2.6,4.5c0.6,1.1,0.1,2-1,2.5c-1.1,0.5-2,0.1-2.6-1
		c-0.5-1-0.9-2.1-1.5-3c-1.4-2.2-3.2-2.9-5.7-2.3c-1.4,0.3-2.4-0.1-2.7-1.2c-0.4-1.2,0.3-2.2,1.7-2.6C40.2,41.3,41,41.2,41.9,41z"/>
</g>
</svg>
